<svg width="116" height="25" viewBox="0 0 116 25" fill="none" xmlns="http://www.w3.org/2000/svg">
<path d="M101.873 14.3483H105.823L103.902 8.79583H103.859L101.873 14.3483ZM102.193 5.06592H105.631L111.333 20.1975H107.852L106.699 16.8279H100.997L99.8017 20.1975H96.4278L102.193 5.06592Z" fill="#0F0F0F"/>
<path d="M112.647 5.06592H116V20.1975H112.647V5.06592Z" fill="#0F0F0F"/>
<path d="M32.4 6.95815C31.301 6.95815 29.9448 7.32309 29.9448 8.6232C29.9448 9.80926 31.7219 10.1058 33.4756 10.5163C36.0243 11.1094 39.0172 11.9989 39.0172 15.5115C39.0172 18.8416 36.0009 20.461 32.9144 20.461C30.3657 20.461 27.7469 19.5943 25.8529 17.9292L27.817 15.4203C29.1732 16.6291 30.9736 17.4731 32.8442 17.4731C34.1069 17.4731 35.4397 17.1309 35.4397 15.6483C35.4397 14.1201 33.1716 13.8921 30.9035 13.299C28.6354 12.706 26.3673 11.748 26.3673 8.80567C26.3673 5.58961 29.3369 3.94737 32.3298 3.94737C34.5278 3.94737 36.679 4.72287 38.4327 6.00017L36.7024 8.6232C35.4631 7.68803 33.99 6.95815 32.4 6.95815ZM47.3882 20.2101C45.8449 23.6771 44.6056 25 42.5714 25C41.8231 25 40.7943 24.7719 40.0694 24.3613L41.2152 21.8752C41.5425 22.0805 41.94 22.1945 42.3843 22.1945C43.6002 22.1945 44.1614 20.9172 44.5823 19.8452L39.8122 8.96533H43.3664L46.0787 16.1045L48.7911 8.96533H52.3453L47.3882 20.2101ZM57.2088 8.96533V10.3111C57.9103 9.33027 59.1963 8.69162 60.6694 8.69162C63.1714 8.69162 64.8783 10.3795 64.8783 12.8657V20.1873H61.6281V13.2534C61.6281 12.1586 60.7396 11.3831 59.5003 11.3831C58.2143 11.3831 57.2088 12.227 57.2088 13.4815V20.1873H53.9587V8.96533H57.2088ZM73.9741 20.1873H71.3085L66.3748 8.96533H69.9289L72.6413 16.0817L75.3536 8.96533H78.9078L73.9741 20.1873ZM88.8687 14.5763C88.8687 12.6832 87.6762 11.3831 85.9693 11.3831C84.2624 11.3831 83.0699 12.6832 83.0699 14.5763C83.0699 16.4695 84.2624 17.7696 85.9693 17.7696C87.6762 17.7696 88.8687 16.4695 88.8687 14.5763ZM92.1423 14.5763C92.1423 17.9064 89.4533 20.461 85.9693 20.461C82.4853 20.461 79.7963 17.9064 79.7963 14.5763C79.7963 11.2462 82.4853 8.69162 85.9693 8.69162C89.4533 8.69162 92.1423 11.2462 92.1423 14.5763Z" fill="#0F0F0F"/>
<path d="M7.02999 16.8422L14.06 23.8159H0L7.02999 16.8422Z" fill="#03ADF0"/>
<path d="M14.9847 6.97368L7.95473 0H22.0147L14.9847 6.97368Z" fill="#03ADF0"/>
<path d="M22.0445 15.9032L15.0135 22.8811L7.98257 15.9032L9.5291 14.3677C9.96515 14.6426 10.482 14.8026 11.0368 14.8026C12.5928 14.8026 13.8541 13.5508 13.8541 12.0066C13.8541 11.4559 13.6928 10.9431 13.4158 10.5103L15.0135 8.92527L22.0445 15.9032Z" fill="#03ADF0"/>
<path d="M14.0761 7.99432L12.4629 9.59473C12.0447 9.35065 11.5571 9.21053 11.0368 9.21053C9.481 9.2107 8.22015 10.4625 8.22015 12.0066C8.22015 12.5229 8.36138 13.0062 8.60727 13.4213L7.04519 14.9722L0.0142419 7.99432L7.04519 1.0164L14.0761 7.99432Z" fill="#03ADF0"/>
</svg>
